<?xml version="1.0" encoding="UTF-8"?>
<!DOCTYPE svg PUBLIC "-//W3C//DTD SVG 1.1//EN" "http://www.w3.org/Graphics/SVG/1.1/DTD/svg11.dtd">
<!-- Creator: CorelDRAW X7 -->
<svg xmlns="http://www.w3.org/2000/svg" xml:space="preserve" width="210mm" height="297mm" version="1.1" style="shape-rendering:geometricPrecision; text-rendering:geometricPrecision; image-rendering:optimizeQuality; fill-rule:evenodd; clip-rule:evenodd"
viewBox="0 0 21000 29700"
 xmlns:xlink="http://www.w3.org/1999/xlink">
 <defs>
  <style type="text/css">
   <![CDATA[
    .fil0 {fill:#E8A735}
    .fil2 {fill:#2B2A29;fill-rule:nonzero}
    .fil1 {fill:#E8A735;fill-rule:nonzero}
   ]]>
  </style>
 </defs>
 <g id="Layer_x0020_1">
  <metadata id="CorelCorpID_0Corel-Layer"/>
  <g id="_2482714523920">
   <path class="fil0" d="M8738 14452c63,0 116,-22 160,-66 45,-45 68,-98 70,-160l0 -1996c-2,-86 -41,-151 -118,-194 -34,-19 -71,-29 -112,-29l-46 0 0 -36 1093 0 -4 36 -43 0c-62,0 -116,22 -162,65 -45,43 -68,96 -68,158l0 1996c0,62 23,115 68,160 46,44 100,66 162,66l43 0 4 36 -1093 0 0 -36 46 0zm590 617l606 -1 1 -60 -1 -86 -606 0 0 147zm-1 341l625 -1 -1 -149 -621 -3 -3 153zm-763 -2l157 4 0 -591 289 346 337 -436 566 0 -1 -152 -642 0 -263 352 -268 -351 -175 0 0 828zm-346 -4741c-511,95 -412,601 -412,1004l0 4233c0,275 19,394 176,529 324,279 670,-16 991,-190 154,-84 298,-166 452,-253 574,-328 1153,-641 1730,-962 -193,-128 -388,-315 -587,-561l-945 -1165 852 -1129c19,-24 29,-46 29,-65 0,-19 -4,-36 -11,-50 -19,-36 -53,-54 -101,-54l-36 0 0 -33 419 0c-227,-127 -453,-255 -680,-381l-1359 -757c-140,-82 -314,-204 -518,-166zm3364 4124c510,-283 1399,-778 1462,-826 112,-87 203,-311 134,-520 -64,-192 -194,-248 -366,-340 -309,-165 -597,-340 -905,-505 -328,-176 -654,-359 -981,-543 -57,28 -108,68 -153,119l-701 835 978 1215c187,246 364,434 532,565z"/>
   <polygon class="fil1" points="6147,17325 5849,17610 6122,17882 6122,18107 5886,18241 5886,17916 5712,17742 5461,17980 5461,18106 5225,18105 5225,17325 5461,17325 5461,17709 5868,17325 "/>
   <path id="1" class="fil1" d="M7205 18241l-235 -134 0 -225 -476 0 0 224 -236 -1 0 -606 178 -174 592 0 177 174 0 742zm-235 -531l0 -211 -476 0 0 211 476 0z"/>
   <path id="2" class="fil1" d="M8367 18241l-236 -135 0 -192 -71 -69 -451 0 0 261 -235 0 0 -781 815 0 178 241 -135 181 135 135 0 359zm-242 -661l-62 -81 -454 0 0 169 452 0 64 -88z"/>
   <polygon id="3" class="fil1" points="8764,18106 8529,18105 8529,17326 8764,17189 "/>
   <polygon id="4" class="fil1" points="9981,17866 9804,18106 8898,18106 9072,17931 9666,17931 9722,17866 9665,17796 9070,17796 8898,17565 9076,17325 9981,17325 9807,17499 9213,17499 9156,17566 9213,17637 9809,17637 "/>
   <polygon id="5" class="fil1" points="11977,18241 11742,18106 11742,17607 11449,18009 11297,18009 11005,17607 11005,18106 10770,18106 10770,17325 11035,17325 11374,17791 11711,17325 11977,17325 "/>
   <polygon id="6" class="fil1" points="13091,17929 12914,18106 12322,18106 12144,17929 12144,17325 12380,17326 12380,17931 12856,17931 12856,17326 13091,17189 "/>
   <polygon id="7" class="fil1" points="14305,17866 14127,18106 13221,18106 13395,17931 13989,17931 14045,17866 13988,17796 13393,17796 13221,17565 13399,17325 14305,17325 14130,17499 13536,17499 13479,17566 13536,17637 14132,17637 "/>
   <polygon id="8" class="fil1" points="14677,18106 14441,18105 14441,17326 14677,17189 "/>
   <polygon id="9" class="fil1" points="15775,17325 15601,17499 15077,17499 15077,17931 15747,17931 15572,18106 15018,18106 14841,17931 14841,17503 15018,17325 "/>
   <polygon class="fil2" points="6993,18491 6889,18596 6575,18596 6575,18678 6924,18678 6829,18774 6575,18774 6575,18855 6976,18855 6871,18959 6433,18959 6433,18491 "/>
   <polygon id="1" class="fil2" points="7642,18959 7535,18959 7203,18686 7203,18959 7062,18958 7062,18491 7161,18491 7500,18771 7500,18492 7642,18410 "/>
   <polygon id="2" class="fil2" points="8348,18491 8244,18596 8105,18596 8105,19040 7964,18959 7964,18596 7825,18596 7721,18491 "/>
   <polygon id="3" class="fil2" points="8972,18491 8868,18596 8554,18596 8554,18678 8904,18678 8809,18774 8554,18774 8554,18855 8956,18855 8851,18959 8413,18959 8413,18491 "/>
   <path id="4" class="fil2" d="M9636 19040l-141 -81 0 -115 -42 -41 -270 0 0 156 -142 0 0 -468 489 0 106 145 -81 108 81 81 0 215zm-145 -396l-37 -48 -271 0 0 101 270 0 38 -53z"/>
   <polygon id="5" class="fil2" points="10244,18491 10140,18596 10001,18596 10001,19040 9860,18959 9860,18596 9721,18596 9617,18491 "/>
   <path id="6" class="fil2" d="M10799 19040l-141 -80 0 -135 -285 0 0 134 -142 -1 0 -362 107 -105 354 0 107 105 0 444zm-141 -318l0 -126 -285 0 0 126 285 0z"/>
   <polygon id="7" class="fil2" points="11041,18959 10900,18958 10900,18492 11041,18410 "/>
   <polygon id="8" class="fil2" points="11724,18959 11617,18959 11285,18686 11285,18959 11144,18958 11144,18491 11243,18491 11583,18771 11583,18492 11724,18410 "/>
   <polygon id="9" class="fil2" points="12550,19040 12409,18959 12409,18660 12233,18901 12142,18901 11968,18660 11968,18959 11826,18959 11826,18491 11985,18491 12188,18770 12390,18491 12550,18491 "/>
   <polygon id="10" class="fil2" points="13212,18491 13108,18596 12793,18596 12793,18678 13143,18678 13048,18774 12793,18774 12793,18855 13195,18855 13090,18959 12652,18959 12652,18491 "/>
   <polygon id="11" class="fil2" points="13861,18959 13754,18959 13422,18686 13422,18959 13281,18958 13281,18491 13380,18491 13719,18771 13719,18492 13861,18410 "/>
   <polygon id="12" class="fil2" points="14567,18491 14463,18596 14324,18596 14324,19040 14183,18959 14183,18596 14044,18596 13940,18491 "/>
  </g>
 </g>
</svg>
